<svg id="Layer_1" data-name="Layer 1" xmlns="http://www.w3.org/2000/svg" viewBox="0 0 500 500"><defs><style>.cls-1{fill:#3c4ca0;fill-rule:evenodd;}</style></defs><title>Ball</title><path class="cls-1" d="M252,277.2c47.67,13.15,83.21,19.36,83.21,19.36a733.31,733.31,0,0,1-54.58-61.39C308.28,196,330.07,169,330.07,169c-29.35,6.5-57.09,14.45-81.94,22.62-23.61-33.91-36.57-57.78-36.57-57.78a349.79,349.79,0,0,0-11.34,74.88c-39.44,15.28-64.09,27.76-64.09,27.76,21.33,9.61,43.47,18,64.91,25.22,3.48,46,12.78,78,12.78,78,12-21.34,25.11-42.58,38.16-62.45Z"/><path class="cls-1" d="M469.58,265.13c-6.48,10.15-16.4,17.39-28,22.48A567.36,567.36,0,0,0,435,226.24a739.09,739.09,0,0,1-30.57,71c-34.95,4.49-69.26-.66-69.26-.66,18.82,22.57,33.43,35.95,45.26,45-17.69,29.84-30.51,45.76-30.51,45.76,24.74-5.66,44.4-15.06,60-26.19a59.93,59.93,0,0,1,17.36,17.6s10.09-14.31,13.55-47.46c25-32.68,28.69-66.12,28.69-66.12Z"/><path class="cls-1" d="M458.17,174.87a156.07,156.07,0,0,0-44.69-58.19c-14.93-31.35-32.11-45.83-32.11-45.83,1.45,7.21.35,15.38-2.33,23.81-37.17-18.42-71.06-21-71.06-21,21.59,14.16,40.75,31.7,57.21,49.79C350,148.14,330.09,169,330.09,169c26.43-6,47.71-8.46,64.73-8.92,26.13,36,40.2,66.2,40.2,66.2a268.47,268.47,0,0,0-6-63.84c22.12,4.22,29.14,12.47,29.14,12.47Z"/><path class="cls-1" d="M308,73.67a272.23,272.23,0,0,0-51.34-19.73c20.44-17.28,39.44-21.65,39.44-21.65A210.41,210.41,0,0,0,211.45,46c-35.25-2.81-57.71,3.3-57.71,3.3,5.28,4,9.73,11.1,14.29,19.6-29.79,20.4-44.93,41.66-44.93,41.66a310.18,310.18,0,0,1,55.81-20.83c2.05,3.76,4.2,7.52,6.56,11.19a213.1,213.1,0,0,0,26.1,32.89c4.88-23.22,13.28-41.3,22.93-55.33,41.93-5.83,73.47-4.8,73.47-4.8Z"/><path class="cls-1" d="M81.61,145.19a390.4,390.4,0,0,1,41.49-34.64,143.76,143.76,0,0,0-31.44,4.11c10.69-25.88,22.54-40.22,22.54-40.22s-68,48.39-81,135.36c0,0,5.72-15.73,25.11-39.44A136.22,136.22,0,0,0,74.9,198.45a223.24,223.24,0,0,1,6.71-53.26Z"/><path class="cls-1" d="M136.14,236.44c-23.62.75-42.14,2.82-56.56,5.46a386.78,386.78,0,0,1-4.68-43.45A190.62,190.62,0,0,0,51,249.4c-16.44,6.1-20.59,12-20.59,12,2.56,8.76,7.69,17.29,14.16,25.28-2,37.87,10.23,62.88,10.23,62.88,2.75-13.27,8.25-26.19,15.15-38.27A284.42,284.42,0,0,0,110.05,338c-9.4-16.85-16.32-35.72-21.4-54a311.79,311.79,0,0,1,47.49-47.54Z"/><path class="cls-1" d="M253,429.85S233.16,421.94,204.8,406c1-17,3.64-38.76,9-66.3,0,0-22.54,22.31-51.73,39.6a488.58,488.58,0,0,1-52-41.29,331.61,331.61,0,0,0,24.64,54.66c-15.39,5.76-31.26,8.43-45.77,4.88,0,0,17.14,21.4,70,30.48,14.66,17.4,32.52,31.77,53.36,36.77,0,0-6.27-6.9-7.67-32.76A444.42,444.42,0,0,0,253,429.85Z"/><path class="cls-1" d="M348.81,427.67a117.55,117.55,0,0,0,1.13-40.37c-13.37,19.23-26.52,33.87-38.69,45A303.84,303.84,0,0,1,253,429.85s14.61,14.59,31.46,23c-22.24,13.76-37.15,15-37.15,15,97.38,2.06,155.81-61.51,155.81-61.51-16.41,10.83-35.41,17.45-54.28,21.34Z"/></svg>