<svg id="Layer_1" data-name="Layer 1" xmlns="http://www.w3.org/2000/svg" viewBox="0 0 390 220"><defs><style>.cls-1{fill:#fff;fill-rule:evenodd;}</style></defs><title>navLogo</title><path class="cls-1" d="M159,88.85a45.38,45.38,0,0,1,69.06.82l2.19-2a48.32,48.32,0,0,0-73.32-.81l2.07,2Z"/><polygon class="cls-1" points="189.26 64.81 175.97 67.57 172.64 51.49 185.73 48.77 186.35 51.72 177.74 53.5 178.44 56.88 186.65 55.17 187.26 58.12 179.06 59.82 179.85 63.69 188.65 61.86 189.26 64.81 189.26 64.81"/><polygon class="cls-1" points="214.59 54.43 206.68 52.76 205.92 56.35 213.84 58.01 213.22 60.96 205.3 59.29 203.91 65.88 199.42 64.94 202.81 48.87 215.22 51.49 214.59 54.43 214.59 54.43"/><path class="cls-1" d="M233.73,81.92,229.8,78.2l.62-3.53L223.66,70l-3,1.88-4.48-2.5,16-9.52,4.36,3-2.78,19.06Zm-1.35-17.58-6,3.82,4.79,3.33,1.24-7.15Z"/><path class="cls-1" d="M160.77,75.33c-3,2.33-7.94,4.24-11.59,0l-5.27-6.76,3.52-2.78,5.18,6.64c1.86,2.2,4.21,1.78,6.08.31s2.82-3.66,1.13-6l-5.18-6.64,3.52-2.78,5.27,6.77c3.15,4.32,1.2,8.22-2.66,11.28Z"/><path class="cls-1" d="M249.9,65.87a77.68,77.68,0,0,0-113.09.54L134.42,64a81.75,81.75,0,0,1,117.91-.37l-2.43,2.27Z"/><path class="cls-1" d="M265.78,131.17c-9.83,0-15.8-8.24-15.8-17.27a15.72,15.72,0,0,1,16-16.2c10.07,0,16.14,8,16.14,16.79,0,10.41-7.55,16.68-16.39,16.68Zm-.55-28.73c-6.11,0-7.94,5.83-7.94,9.78,0,5.77,2.56,14.21,9.62,14.21,5,0,8-4.49,8-9.87,0-5.73-2.23-14.12-9.64-14.12Z"/><path class="cls-1" d="M205.6,126.48c0,1.78.35,2.42,3.21,3v1.23c-3.11-.15-5-.29-6.86-.29s-3.76.14-5.93.29v-1.23c1.93-.34,2.27-1.19,2.27-3.51V101.8c0-1.38-.59-2-2.27-2.08V98.35h14.61c9.14,0,12.45,4.35,12.45,10.07,0,6.13-4.65,9.88-11,9.88-2.42,0-6-1.24-6-2.27,0-.45.3-.45.75-.45s1.08.15,1.72.15c5.18,0,7.21-2.91,7.21-7,0-4.44-2.77-6-7.11-6l-3.07.32v23.46Zm0,0Z"/><path class="cls-1" d="M232.62,101.5c0-1.38-.59-2-2.27-2.07V98.14c2.17.15,4.1.29,5.93.29s3.75-.14,5.91-.29v1.29c-1.67,0-2.26.69-2.26,2.07v25.87c0,1.38.59,2,2.26,2.08v1.23c-2.16-.14-4.09-.29-5.91-.29s-3.76.15-5.93.29v-1.23c1.68,0,2.27-.69,2.27-2.07V101.5Z"/><path class="cls-1" d="M292.06,101.47c0-1.38-.58-2-2.27-2.07V98.11c2.18.15,4.1.3,5.93.3a22.12,22.12,0,0,0,4.34-.3l13.63,22.08h.1v-18c0-2.56-1.63-2.76-3-2.76V98.12c1.63.14,3.21.29,4.74.29s3.27-.15,4.84-.29V99.4c-1.68,0-2.27.69-2.27,2.07v29.22h-5.24L296.5,105.18h-.09v21.48c0,2.56,1.63,2.77,3,2.77v1.23c-1.63-.16-3.21-.3-4.74-.3s-3.26.15-4.84.3v-1.24c1.68,0,2.27-.69,2.27-2.08V101.47Z"/><path class="cls-1" d="M330.5,119.45c1,5.54,4.66,8.13,10.1,8.13,3,0,7.31-.86,7.31-4.67,0-3-3.15-3.87-5.49-4.57l-3.61-1.07c-5.18-1.52-10.37-3.71-10.37-9.72,0-7.87,7.63-10.26,15.2-10.26a28.21,28.21,0,0,1,9.46,1.63c0,3.66.2,6.76.4,9.4h-1.27c-1.07-4.67-4.88-6.86-9.45-6.86-2.54,0-6.81.81-6.81,4.32,0,2.8,2.44,3.6,4.52,4.22l5.33,1.52c5.15,1.47,9.92,3.36,9.92,10s-6.76,10.27-15,10.27a33.56,33.56,0,0,1-11-1.83c0-4-.15-7.52-.4-10.47Zm0,0Z"/><path class="cls-1" d="M73.78,101.5c0-1.39-.58-2-2.27-2.08V98.14c2.18.14,4.1.29,5.92.29s3.76-.15,5.93-.29v1.28c-1.67,0-2.27.69-2.27,2.08v9.77H93V101.5c0-1.39-.59-2-2.27-2.08V98.14c2.16.14,4.1.29,5.92.29s3.75-.15,5.93-.29v1.29c-1.68,0-2.28.68-2.28,2.07v25.87c0,1.38.6,2,2.27,2.08v1.26c-2.17-.15-4.1-.3-5.92-.3s-3.76.15-5.93.3v-1.26c1.69,0,2.28-.7,2.28-2.08V116h-12v11.35c0,1.38.58,2,2.26,2.08v1.26c-2.17-.15-4.09-.3-5.92-.3s-3.75.15-5.92.3v-1.26c1.68,0,2.27-.7,2.27-2.08V101.5Zm0,0Z"/><path class="cls-1" d="M120.89,116.56c1.29-3.51,2.87-7.41,4-11.36h.1a93.65,93.65,0,0,0,2.86,11.36Zm-12,14.12c1.73-.15,3.41-.29,5.14-.29s3.41.14,5.08.29v-1.23c-1.63-.1-2.32-.69-2.32-1.58a5.27,5.27,0,0,1,.4-1.73l2.17-5.82H129l1.58,4.78a8,8,0,0,1,.5,2.47c0,1.14-.64,1.54-2.47,1.88v1.23c2.12-.15,4.25-.29,6.37-.29s4.2.14,6.26.29v-1.23c-1.47-.4-2.21-1-3-3.21l-9.08-28.1c-1.53.15-3.11.29-4.64.29s-3.06-.15-4.64-.29v1.29c1.33,0,1.88.79,1.88,1.28a7.05,7.05,0,0,1-.64,1.93l-9.68,24.53a3,3,0,0,1-2.57,2.28v1.23Z"/><path class="cls-1" d="M151.24,106.14c0-1.38.16-2.77.16-4.74,0-1.54-.35-1.72-2.22-2v-1.3a50.45,50.45,0,0,0,5,.29c1.77,0,3.55-.14,5.32-.29l8.65,22.9,7.74-22.9c1.73.16,3.42.29,5.14.29s3.45-.13,5.14-.29v1.3c-1.73.15-2,.69-2,2s.19,3.59.34,5.28l1.58,21.08c.11,1.29,1.54,1.48,2.52,1.63v1.23c-2.12-.15-4.29-.29-6.42-.29s-4.29.14-6.32.29v-1.23c2.42-.3,3.06-.75,3.06-3,0-1.19-.15-3.41-.29-5l-1.13-14.72h-.1L169.23,131h-4.16l-9.42-24.56h-.1l-.4,14.47c-.05,2.56-.15,3.89-.15,5.23,0,2.47.25,3,3.21,3.36v1.23c-2-.15-3.8-.29-5.68-.29s-3.65.14-5.18.29v-1.23c1.92-.15,2.72-.59,2.81-2.67l1.08-20.64Z"/><path class="cls-1" d="M64.08,128.87a20.26,20.26,0,0,1-11.4,3.64c-11.77,0-18.42-9.14-18.42-18.49,0-9.58,6.65-18.83,19.4-18.83a26.51,26.51,0,0,1,8.93,1.34c0,3.74.21,7.35.48,10.93H61.65c-.88-4.57-4-7-8.64-7-6.22,0-11,4.88-11,13.15,0,6.22,5.13,13.26,12.31,13.26a18.14,18.14,0,0,0,10.39-4.15l-.62,6.13Z"/><path class="cls-1" d="M117.52,148.53c0-1.06-.45-1.56-1.75-1.59v-1.05c1.68.11,3.17.23,4.58.23,1.6,0,3.92-.11,5-.23v1.05c-1.94.07-2.21,1-2.21,2.09v18.66h7c2.51,0,3.54-1.14,4.19-4h1.23a43.38,43.38,0,0,0-.91,7.39h-19v-1c1.3,0,1.75-.53,1.75-1.6V148.53Z"/><path class="cls-1" d="M141.78,148.66c0-1.07-.45-1.56-1.75-1.6v-1h19.26c.05,2.09.11,3.8.31,5.86h-1c-.38-2.1-.91-2.82-3-2.82h-8.15v7.36h5.06c1.72,0,2-.57,2.21-1.94h1.05a35.17,35.17,0,0,0-.23,3.63,34.79,34.79,0,0,0,.23,3.62H154.7c-.23-1.38-.49-1.95-2.21-1.95h-5.06v7.92H156c2.06,0,2.7-.69,3.35-3.9h1.27c-.34,3.14-.41,5.16-.45,7.25H140v-1c1.3,0,1.75-.53,1.75-1.6V148.66Z"/><path class="cls-1" d="M165.19,170a2.34,2.34,0,0,0,2-1.75l7.47-18.9a5.06,5.06,0,0,0,.49-1.48c0-.38-.41-1-1.44-1v-1c1.21.11,2.4.23,3.58.23s2.4-.12,3.59-.23l7,21.68c.57,1.67,1.14,2.16,2.28,2.47v1c-1.59-.1-3.23-.22-4.83-.22s-3.28.11-4.92.22v-1c1.41-.27,1.9-.57,1.9-1.45a6.55,6.55,0,0,0-.38-1.9L180.71,163h-7.44l-1.68,4.48a4.05,4.05,0,0,0-.3,1.33c0,.68.53,1.14,1.79,1.22v1c-1.28-.1-2.62-.22-3.92-.22s-2.63.11-4,.22v-1Zm14.61-9.92a72.22,72.22,0,0,1-2.21-8.75h-.08c-.88,3-2.1,6.05-3.08,8.75Z"/><path class="cls-1" d="M210.56,162.14c0-1.53-.69-1.6-2.4-1.64v-1.27c1.56.11,3.13.23,4.73.23s3.39-.12,5.1-.23v1.19c-1.33,0-2,.39-2,2.1v8.53h-2.21l-.87-2.55a10.56,10.56,0,0,1-7.52,3.05c-7.17,0-11.74-5.91-11.74-12.77,0-8.27,5.53-13.28,13.76-13.28a14.68,14.68,0,0,1,7.52,1.77c0,1.88.08,4,.23,6.65h-1.09c-.5-3.4-3.72-5.07-6.89-5.07-5.3,0-7.88,4-7.88,9,0,4.74,2.67,10.07,7.08,10.07,2.71,0,4.2-1.25,4.2-3v-2.74Zm0,0Z"/><path class="cls-1" d="M225.65,148.53c0-1.06-.45-1.56-1.75-1.59v-1.05c1.23.11,2.78.23,4.39.23,2,0,3.54-.11,5.07-.23v1.05c-1.64.07-2.06.38-2.06,1.86v14.25c0,4.31,1.79,5.15,4.88,5.15s4.88-.92,4.88-5.15V148.8c0-1.49-.42-1.79-2.06-1.86v-1.05c1.53.11,3.08.23,5.07.23,1.6,0,3.17-.11,4.38-.23v1.05c-1.29,0-1.75.53-1.75,1.59v13.72c0,7.05-3.66,9.3-10.52,9.3s-10.54-2.25-10.54-8.77V148.53Zm0,0Z"/><path class="cls-1" d="M256.53,148.66c0-1.07-.46-1.56-1.76-1.6v-1H274c0,2.09.11,3.8.3,5.86h-1c-.38-2.1-.91-2.82-3-2.82h-8.15v7.25h5.07c1.71,0,2-.57,2.21-1.95h1a35.54,35.54,0,0,0-.22,3.62,34.71,34.71,0,0,0,.22,3.63h-1c-.23-1.37-.51-2-2.21-2h-5.07v8h8.58c2.05,0,2.7-.69,3.34-3.9h1.28a71.59,71.59,0,0,0-.46,7.25H254.77v-1c1.3,0,1.76-.53,1.76-1.6V148.66Z"/><path class="cls-1" d="M281.29,181.33a4.56,4.56,0,1,0-4.63-4.56,4.54,4.54,0,0,0,4.63,4.56Zm-3.72-4.56a3.7,3.7,0,1,1,3.72,3.8,3.69,3.69,0,0,1-3.72-3.8Zm2.75.35h.92l1.39,2.28h.88L282,177.09a1.37,1.37,0,0,0,1.36-1.45c0-1-.61-1.5-1.85-1.5h-2v5.26h.8v-2.28Zm0-.67v-1.63h1.09c.55,0,1.14.12,1.14.77,0,.81-.59.86-1.27.86Z"/></svg>