<svg id="Layer_1" data-name="Layer 1" xmlns="http://www.w3.org/2000/svg" viewBox="0 0 500 500"><defs><style>.cls-1{fill:#3c4ca0;fill-rule:evenodd;}</style></defs><title>Artboard 2</title><path class="cls-1" d="M250,139.68c24,6.63,41.9,9.75,41.9,9.75a368.5,368.5,0,0,1-27.49-30.91c13.93-19.7,24.91-33.34,24.91-33.34-14.78,3.28-28.75,7.28-41.26,11.39A342.19,342.19,0,0,1,229.6,67.48a175.89,175.89,0,0,0-5.71,37.7c-19.86,7.7-32.27,14-32.27,14,10.74,4.84,21.89,9.06,32.68,12.7a211.65,211.65,0,0,0,6.44,39.27c6-10.75,12.64-21.44,19.21-31.45Z"/><path class="cls-1" d="M359.51,133.61c-3.26,5.11-8.26,8.75-14.1,11.32a287.24,287.24,0,0,0-3.3-30.9,373.87,373.87,0,0,1-15.39,35.74,144.08,144.08,0,0,1-34.87-.34c9.47,11.36,16.83,18.1,22.78,22.65a214.66,214.66,0,0,1-15.36,23,83.48,83.48,0,0,0,30.23-13.19,30,30,0,0,1,8.74,8.86s5.08-7.2,6.82-23.89a74,74,0,0,0,14.45-33.29Z"/><path class="cls-1" d="M353.77,88.16a78.69,78.69,0,0,0-22.51-29.3c-7.51-15.78-16.16-23.07-16.16-23.07.73,3.63.17,7.74-1.18,12a107.82,107.82,0,0,0-35.78-10.57A153.11,153.11,0,0,1,307,62.28a155.64,155.64,0,0,1-17.67,22.91,169.33,169.33,0,0,1,32.59-4.49A224.22,224.22,0,0,1,342.11,114a135,135,0,0,0-3-32.15c11.14,2.13,14.68,6.28,14.68,6.28Z"/><path class="cls-1" d="M278.14,37.21a137.3,137.3,0,0,0-25.85-9.94c10.29-8.7,19.86-10.9,19.86-10.9a106.06,106.06,0,0,0-42.61,6.9c-17.75-1.42-29.06,1.66-29.06,1.66,2.66,2,4.91,5.59,7.2,9.87-15,10.27-22.62,21-22.62,21a156,156,0,0,1,28.1-10.49c1,1.89,2.11,3.78,3.3,5.63A107,107,0,0,0,229.6,67.48a76.29,76.29,0,0,1,11.55-27.86,241.06,241.06,0,0,1,37-2.41Z"/><path class="cls-1" d="M164.17,73.22a195.92,195.92,0,0,1,20.89-17.44,72.32,72.32,0,0,0-15.83,2.07c5.38-13,11.35-20.25,11.35-20.25S146.32,62,139.81,105.75c0,0,2.88-7.92,12.65-19.86A68.48,68.48,0,0,0,160.79,100a112.51,112.51,0,0,1,3.38-26.81Z"/><path class="cls-1" d="M191.62,119.16a193.9,193.9,0,0,0-28.48,2.75A195,195,0,0,1,160.79,100a96.2,96.2,0,0,0-12,25.66c-8.28,3.07-10.37,6-10.37,6a37.48,37.48,0,0,0,7.14,12.72c-1,19.07,5.14,31.66,5.14,31.66a66.79,66.79,0,0,1,7.63-19.26,143,143,0,0,0,20.19,13.43,125.68,125.68,0,0,1-10.78-27.18,156.87,156.87,0,0,1,23.91-23.94Z"/><path class="cls-1" d="M250.45,216.54a225,225,0,0,1-24.26-12,254.52,254.52,0,0,1,4.55-33.38,150.91,150.91,0,0,1-26.05,19.94,244.5,244.5,0,0,1-26.2-20.79,167.08,167.08,0,0,0,12.4,27.52c-7.75,2.9-15.74,4.25-23,2.46,0,0,8.63,10.78,35.25,15.35,7.38,8.76,16.37,16,26.87,18.51,0,0-3.16-3.47-3.87-16.49a221.71,221.71,0,0,0,24.35-1.09Z"/><path class="cls-1" d="M298.7,215.44a59,59,0,0,0,.57-20.32,135.31,135.31,0,0,1-19.48,22.67,153.16,153.16,0,0,1-29.34-1.25s7.36,7.35,15.84,11.59c-11.2,6.93-18.71,7.54-18.71,7.54,49,1,78.45-31,78.45-31-8.26,5.45-17.83,8.79-27.33,10.74Z"/><path class="cls-1" d="M196.26,345.86a67.62,67.62,0,0,1,102.94,1.22l3.28-3.07a72.06,72.06,0,0,0-109.32-1.2l3.1,3.05Z"/><polygon class="cls-1" points="241.44 310.01 221.63 314.12 216.66 290.15 236.18 286.1 237.1 290.49 224.27 293.15 225.3 298.18 237.55 295.64 238.47 300.04 226.23 302.58 227.41 308.34 240.53 305.62 241.44 310.01 241.44 310.01"/><polygon class="cls-1" points="279.21 294.54 267.41 292.05 266.27 297.4 278.08 299.88 277.16 304.27 265.35 301.78 263.28 311.61 256.59 310.2 261.64 286.25 280.14 290.15 279.21 294.54 279.21 294.54"/><path class="cls-1" d="M307.74,335.51,301.87,330l.93-5.26-10.08-7-4.45,2.81-6.66-3.73,23.77-14.19,6.51,4.52-4.15,28.4Zm-2-26.2-9,5.69,7.14,5,1.86-10.66Z"/><path class="cls-1" d="M199,325.7c-4.4,3.47-11.83,6.32-17.28-.08l-7.86-10.08,5.26-4.14,7.71,9.9c2.78,3.28,6.28,2.65,9.06.46s4.21-5.46,1.69-8.93l-7.73-9.9,5.26-4.14,7.86,10.09c4.69,6.45,1.78,12.25-4,16.82Z"/><path class="cls-1" d="M331.85,311.6a115.81,115.81,0,0,0-168.6.79l-3.57-3.63a121.88,121.88,0,0,1,175.79-.55l-3.62,3.39Z"/><path class="cls-1" d="M355.51,408.94c-14.65,0-23.55-12.28-23.55-25.75,0-14,10.38-24.14,23.92-24.14,15,0,24.07,11.91,24.07,25,0,15.52-11.26,24.88-24.44,24.87Zm-.82-42.83c-9.11,0-11.84,8.69-11.84,14.58,0,8.6,3.83,21.19,14.35,21.19,7.5,0,11.86-6.69,11.86-14.72,0-8.54-3.31-21.05-14.37-21.05Z"/><path class="cls-1" d="M265.8,402c0,2.65.52,3.6,4.79,4.41v1.84c-4.64-.22-7.52-.44-10.24-.44s-5.59.22-8.83.44v-1.84c2.88-.51,3.39-1.76,3.39-5.23v-36c0-2.06-.89-3-3.39-3.09V360h21.79c13.62,0,18.55,6.49,18.55,15,0,9.13-6.93,14.72-16.42,14.72-3.6,0-8.91-1.84-8.91-3.38,0-.67.44-.67,1.11-.67s1.62.23,2.57.23c7.73,0,10.75-4.35,10.75-10.46,0-6.62-4.12-9-10.6-9l-4.57.48v35Zm0,0Z"/><path class="cls-1" d="M306.08,364.71c0-2.06-.88-3-3.39-3.09v-1.93c3.24.23,6.12.44,8.85.44s5.59-.21,8.81-.44v1.93c-2.48.08-3.38,1-3.38,3.09v38.57c0,2.06.89,3,3.38,3.09v1.84c-3.23-.21-6.1-.43-8.81-.44s-5.61.23-8.85.44v-1.84c2.51-.07,3.39-1,3.39-3.09V364.71Z"/><path class="cls-1" d="M394.7,364.67c0-2.06-.88-3-3.39-3.09v-1.92c3.24.22,6.11.44,8.84.44a33.46,33.46,0,0,0,6.47-.44l20.32,32.92h.14V365.69c0-3.81-2.42-4.11-4.41-4.11v-1.92c2.42.22,4.78.44,7.06.44s4.87-.22,7.22-.44v1.92c-2.51.08-3.39,1-3.39,3.09v43.55h-7.81l-24.43-38h-.15v32c0,3.82,2.44,4.12,4.43,4.12v1.84c-2.44-.23-4.79-.44-7.08-.44s-4.85.21-7.2.44v-1.84c2.51-.08,3.39-1,3.39-3.1V364.67Z"/><path class="cls-1" d="M452,391.48c1.5,8.25,6.93,12.12,15,12.12,4.47,0,10.9-1.29,10.9-7,0-4.55-4.69-5.77-8.18-6.82l-5.38-1.59c-7.72-2.27-15.46-5.53-15.46-14.49,0-11.73,11.37-15.29,22.66-15.29a42.12,42.12,0,0,1,14.1,2.42c0,5.46.3,10.08.6,14H484.4c-1.6-7-7.27-10.22-14.09-10.22-3.79,0-10.16,1.21-10.16,6.44,0,4.17,3.64,5.37,6.74,6.29l7.95,2.27c7.68,2.19,14.79,5,14.79,14.85s-10.08,15.31-22.43,15.31a50,50,0,0,1-16.45-2.73c0-6-.23-11.21-.59-15.61H452Zm0,0Z"/><path class="cls-1" d="M69.29,364.7c0-2.06-.88-3-3.38-3.09v-1.92c3.24.22,6.1.44,8.82.44s5.6-.22,8.83-.44v1.92c-2.49.07-3.38,1-3.38,3.09v14.58H98V364.7c0-2.06-.89-3-3.39-3.09v-1.92c3.23.22,6.12.44,8.83.44s5.59-.22,8.83-.44v1.93c-2.5.06-3.38,1-3.38,3.08l0,38.58c0,2.06.9,3,3.4,3.09v1.88c-3.24-.23-6.11-.44-8.83-.44s-5.61.22-8.84.44v-1.88c2.51-.07,3.39-1,3.39-3.09V386.35H80.18v16.93c0,2.06.87,3,3.38,3.09v1.88c-3.24-.23-6.1-.44-8.84-.44s-5.59.22-8.83.44v-1.88c2.52-.07,3.39-1,3.39-3.09V364.7Zm0,0Z"/><path class="cls-1" d="M139.52,387.16c1.92-5.23,4.27-11,6-16.93h.15a139.21,139.21,0,0,0,4.26,16.93Zm-17.82,21c2.58-.22,5.08-.44,7.66-.44s5.08.22,7.58.44v-1.84c-2.43-.14-3.47-1-3.47-2.35a7.8,7.8,0,0,1,.6-2.57l3.24-8.69h14.35l2.35,7.13a12.29,12.29,0,0,1,.74,3.69c0,1.69-.95,2.29-3.69,2.8v1.83c3.17-.22,6.34-.44,9.5-.44s6.26.22,9.34.44v-1.84c-2.2-.59-3.3-1.54-4.41-4.78L152,359.7c-2.29.22-4.64.43-6.92.43s-4.56-.22-6.92-.43v1.92c2,0,2.81,1.17,2.81,1.91a10,10,0,0,1-1,2.87L125.53,403c-.74,1.91-1.7,3.1-3.83,3.39v1.84Z"/><path class="cls-1" d="M184.77,371.63c.07-2.06.22-4.13.22-7.06,0-2.3-.51-2.58-3.31-2.95v-1.93c2.21.22,4.86.43,7.52.43s5.29-.21,7.93-.43L210,393.82l11.54-34.13c2.58.23,5.09.43,7.65.43s5.16-.2,7.67-.43v1.93c-2.57.22-2.95,1-2.95,3s.29,5.36.51,7.88l2.35,31.42c.16,1.92,2.3,2.21,3.77,2.43v1.84c-3.17-.22-6.41-.44-9.58-.44s-6.39.22-9.42.44v-1.84c3.6-.44,4.57-1.1,4.57-4.49,0-1.76-.23-5.08-.44-7.5L224,372.44h-.15l-12.29,36.18h-6.19l-14-36.62h-.15l-.58,21.57c-.08,3.82-.23,5.81-.23,7.79,0,3.68.37,4.5,4.79,5v1.84c-2.95-.22-5.67-.44-8.47-.44s-5.45.22-7.73.44v-1.84c2.87-.22,4-.87,4.2-4l1.61-30.77Z"/><path class="cls-1" d="M54.82,405.52c-5,3.86-12.27,5.42-17,5.42-17.55,0-27.46-13.63-27.46-27.57,0-14.28,9.91-28.07,28.92-28.07a39.6,39.6,0,0,1,13.32,2c0,5.58.3,11,.71,16.3H51.2c-1.31-6.81-6-10.41-12.88-10.41-9.27,0-16.41,7.29-16.41,19.61,0,9.27,7.64,19.76,18.35,19.76,4.56,0,11.12-2.48,15.49-6.17l-.93,9.14Z"/><path class="cls-1" d="M134.5,434.83c0-1.59-.68-2.33-2.61-2.39v-1.55c2.5.17,4.71.34,6.82.34,2.39,0,5.84-.17,7.5-.34v1.55c-2.9.12-3.3,1.53-3.3,3.13v27.82h10.51c3.75,0,5.29-1.7,6.25-6h1.84a64.94,64.94,0,0,0-1.36,11H131.89v-1.55c1.93-.06,2.61-.79,2.61-2.39V434.83Z"/><path class="cls-1" d="M170.66,435c0-1.59-.68-2.33-2.61-2.39v-1.56h28.71c.08,3.13.17,5.67.46,8.74h-1.56c-.56-3.13-1.36-4.2-4.43-4.2H179.08v11h7.55c2.56,0,3-.86,3.29-2.9h1.56c-.17,1.42-.34,3.87-.34,5.41s.17,4,.34,5.4h-1.56c-.34-2.06-.73-2.91-3.29-2.91h-7.55v11.8h12.78c3.07,0,4-1,5-5.8h1.89c-.51,4.67-.62,7.69-.68,10.81h-30v-1.55c1.93-.07,2.61-.79,2.61-2.39V435Z"/><path class="cls-1" d="M205.56,466.85a3.46,3.46,0,0,0,3-2.6l11.13-28.17a7.71,7.71,0,0,0,.73-2.21c0-.57-.61-1.47-2.15-1.47v-1.55c1.81.17,3.58.34,5.34.34s3.58-.17,5.35-.34l10.46,32.32c.84,2.49,1.7,3.23,3.39,3.69v1.54c-2.37-.16-4.81-.33-7.2-.33s-4.89.17-7.34.33v-1.54c2.11-.4,2.85-.86,2.85-2.16a9.89,9.89,0,0,0-.57-2.84l-1.82-5.49H217.61l-2.5,6.69a5.85,5.85,0,0,0-.46,2c0,1,.8,1.69,2.68,1.82v1.54c-1.92-.16-3.92-.33-5.86-.33s-3.92.17-5.91.33v-1.55Zm21.77-14.78A107.71,107.71,0,0,1,224,439h-.12c-1.31,4.54-3.12,9-4.59,13.05Z"/><path class="cls-1" d="M273.2,455.11c0-2.27-1-2.39-3.58-2.44v-1.9c2.32.17,4.66.34,7.05.34,2.55,0,5.05-.17,7.61-.34v1.78c-2,.06-3,.57-3,3.13v12.71H278l-1.29-3.81a15.73,15.73,0,0,1-11.22,4.55c-10.68,0-17.5-8.81-17.5-19,0-12.33,8.24-19.8,20.52-19.8,3.93,0,8.15.73,11.21,2.64,0,2.81.11,6,.34,9.92h-1.63c-.74-5.06-5.53-7.55-10.26-7.55-7.9,0-11.76,6-11.76,13.37,0,7.05,4,15,10.57,15,4,0,6.26-1.88,6.26-4.5v-4.08Zm0,0Z"/><path class="cls-1" d="M295.69,434.83c0-1.59-.67-2.33-2.6-2.39v-1.55c1.82.17,4.14.34,6.53.34,2.95,0,5.29-.17,7.56-.34v1.55c-2.45.12-3.07.57-3.07,2.79v21.23c0,6.43,2.67,7.69,7.28,7.69s7.28-1.38,7.28-7.69V435.23c0-2.22-.63-2.67-3.08-2.79v-1.55c2.28.17,4.6.34,7.56.34,2.38,0,4.72-.17,6.54-.34v1.55c-1.94.06-2.62.8-2.62,2.39v20.45c0,10.5-5.46,13.86-15.69,13.86s-15.7-3.36-15.7-13.08V434.83Zm0,0Z"/><path class="cls-1" d="M341.72,435c0-1.59-.68-2.33-2.61-2.39v-1.56h28.72c.05,3.13.17,5.67.45,8.74h-1.55c-.58-3.13-1.36-4.2-4.44-4.2H350.13v10.81h7.56c2.55,0,2.95-.85,3.29-2.9h1.55c-.17,1.42-.32,3.87-.32,5.39s.15,4,.32,5.42H361c-.34-2.05-.75-2.91-3.29-2.91h-7.56v12h12.79c3.06,0,4-1,5-5.8h1.9a107.32,107.32,0,0,0-.69,10.81h-30v-1.55c1.93-.07,2.61-.79,2.61-2.39V435Z"/><path class="cls-1" d="M378.64,483.72a6.79,6.79,0,1,0-6.9-6.81,6.78,6.78,0,0,0,6.9,6.81Zm-5.54-6.81a5.52,5.52,0,1,1,5.54,5.68,5.49,5.49,0,0,1-5.54-5.68Zm4.1.54h1.37l2.06,3.4H382l-2.23-3.45a2,2,0,0,0,2-2.17c0-1.53-.91-2.23-2.76-2.23h-3v7.85h1.19v-3.4Zm0-1V474h1.62c.82,0,1.7.18,1.7,1.15,0,1.21-.89,1.28-1.9,1.28Z"/></svg>